<svg width="280" height="75" viewBox="0 0 280 75" fill="none" xmlns="http://www.w3.org/2000/svg">
  <rect width="280" height="75" fill="#fff"/>
  <path d="M140.5 25.5L159 58.5H122L140.5 25.5Z" fill="#000"/>
  <path d="M171.5 25.5L190 58.5H176.5L167.5 42.5H152.5L143.5 58.5H130L148.5 25.5H165L171.5 37.5H156.5L152.5 30.5H165L171.5 25.5Z" fill="#000"/>
  <path d="M191 25.5V58.5H204.5L218 35V58.5H231V25.5H217.5L204 48.5V25.5H191Z" fill="#000"/>
  <path d="M231.5 25.5V58.5H245L254 42.5H265L274 58.5H280.5V25.5H267V42.5H255.5L246.5 26.5H240.5L231.5 42.5V25.5H231.5Z" fill="#000"/>
</svg>